<mxfile host="app.diagrams.net" modified="2023-11-01T20:47:00.075Z" agent="Mozilla/5.0 (Windows NT 10.0; Win64; x64) AppleWebKit/537.36 (KHTML, like Gecko) Chrome/119.0.0.0 Safari/537.36" etag="7QOqPvDUzzXgm3JbPKKT" version="22.0.8" type="device">
  <diagram name="第 1 页" id="d0MvfGAoZFXPWcXQXpO0">
    <mxGraphModel dx="1050" dy="534" grid="1" gridSize="10" guides="1" tooltips="1" connect="1" arrows="1" fold="1" page="1" pageScale="1" pageWidth="1654" pageHeight="1169" math="0" shadow="0">
      <root>
        <mxCell id="0" />
        <mxCell id="1" parent="0" />
        <mxCell id="DKkt0BgKR7W6huxDK1Yo-8" value="" style="edgeStyle=orthogonalEdgeStyle;rounded=0;orthogonalLoop=1;jettySize=auto;html=1;fontStyle=1" parent="1" source="DKkt0BgKR7W6huxDK1Yo-1" target="DKkt0BgKR7W6huxDK1Yo-7" edge="1">
          <mxGeometry relative="1" as="geometry" />
        </mxCell>
        <mxCell id="DKkt0BgKR7W6huxDK1Yo-1" value="Start" style="ellipse;whiteSpace=wrap;html=1;fontStyle=1" parent="1" vertex="1">
          <mxGeometry x="170" y="420" width="120" height="80" as="geometry" />
        </mxCell>
        <mxCell id="DKkt0BgKR7W6huxDK1Yo-18" value="" style="edgeStyle=orthogonalEdgeStyle;rounded=0;orthogonalLoop=1;jettySize=auto;html=1;fontStyle=1" parent="1" source="DKkt0BgKR7W6huxDK1Yo-2" target="DKkt0BgKR7W6huxDK1Yo-17" edge="1">
          <mxGeometry relative="1" as="geometry" />
        </mxCell>
        <mxCell id="DKkt0BgKR7W6huxDK1Yo-26" style="edgeStyle=orthogonalEdgeStyle;rounded=0;orthogonalLoop=1;jettySize=auto;html=1;entryX=0.5;entryY=1;entryDx=0;entryDy=0;fontStyle=1" parent="1" source="DKkt0BgKR7W6huxDK1Yo-2" target="DKkt0BgKR7W6huxDK1Yo-25" edge="1">
          <mxGeometry relative="1" as="geometry" />
        </mxCell>
        <mxCell id="DKkt0BgKR7W6huxDK1Yo-2" value="If the infomation formal&amp;nbsp; is correct" style="rhombus;whiteSpace=wrap;html=1;fontStyle=1" parent="1" vertex="1">
          <mxGeometry x="640" y="410" width="120" height="100" as="geometry" />
        </mxCell>
        <mxCell id="DKkt0BgKR7W6huxDK1Yo-22" style="edgeStyle=orthogonalEdgeStyle;rounded=0;orthogonalLoop=1;jettySize=auto;html=1;entryX=0.5;entryY=0;entryDx=0;entryDy=0;fontStyle=1" parent="1" source="DKkt0BgKR7W6huxDK1Yo-5" target="DKkt0BgKR7W6huxDK1Yo-21" edge="1">
          <mxGeometry relative="1" as="geometry">
            <Array as="points">
              <mxPoint x="970" y="200" />
            </Array>
          </mxGeometry>
        </mxCell>
        <mxCell id="DKkt0BgKR7W6huxDK1Yo-5" value="Register succeed" style="rounded=0;whiteSpace=wrap;html=1;fontStyle=1" parent="1" vertex="1">
          <mxGeometry x="810" y="170" width="120" height="60" as="geometry" />
        </mxCell>
        <mxCell id="DKkt0BgKR7W6huxDK1Yo-10" value="" style="edgeStyle=orthogonalEdgeStyle;rounded=0;orthogonalLoop=1;jettySize=auto;html=1;fontStyle=1" parent="1" source="DKkt0BgKR7W6huxDK1Yo-6" target="DKkt0BgKR7W6huxDK1Yo-2" edge="1">
          <mxGeometry relative="1" as="geometry" />
        </mxCell>
        <mxCell id="DKkt0BgKR7W6huxDK1Yo-6" value="User enter email and password" style="rounded=0;whiteSpace=wrap;html=1;fontStyle=1" parent="1" vertex="1">
          <mxGeometry x="490" y="430" width="120" height="60" as="geometry" />
        </mxCell>
        <mxCell id="DKkt0BgKR7W6huxDK1Yo-9" value="" style="edgeStyle=orthogonalEdgeStyle;rounded=0;orthogonalLoop=1;jettySize=auto;html=1;fontStyle=1" parent="1" source="DKkt0BgKR7W6huxDK1Yo-7" target="DKkt0BgKR7W6huxDK1Yo-6" edge="1">
          <mxGeometry relative="1" as="geometry" />
        </mxCell>
        <mxCell id="DKkt0BgKR7W6huxDK1Yo-7" value="User click register button" style="rounded=0;whiteSpace=wrap;html=1;fontStyle=1" parent="1" vertex="1">
          <mxGeometry x="330" y="430" width="120" height="60" as="geometry" />
        </mxCell>
        <mxCell id="DKkt0BgKR7W6huxDK1Yo-13" value="&lt;font style=&quot;font-size: 15px;&quot;&gt;Yes&lt;/font&gt;" style="text;html=1;align=center;verticalAlign=middle;resizable=0;points=[];autosize=1;strokeColor=none;fillColor=none;fontStyle=1" parent="1" vertex="1">
          <mxGeometry x="695" y="380" width="50" height="30" as="geometry" />
        </mxCell>
        <mxCell id="DKkt0BgKR7W6huxDK1Yo-14" value="&lt;font style=&quot;font-size: 15px;&quot;&gt;No&lt;/font&gt;" style="text;html=1;align=center;verticalAlign=middle;resizable=0;points=[];autosize=1;strokeColor=none;fillColor=none;fontStyle=1" parent="1" vertex="1">
          <mxGeometry x="700" y="518" width="40" height="30" as="geometry" />
        </mxCell>
        <mxCell id="DKkt0BgKR7W6huxDK1Yo-19" style="edgeStyle=orthogonalEdgeStyle;rounded=0;orthogonalLoop=1;jettySize=auto;html=1;entryX=0.5;entryY=1;entryDx=0;entryDy=0;fontStyle=1" parent="1" source="DKkt0BgKR7W6huxDK1Yo-17" target="DKkt0BgKR7W6huxDK1Yo-6" edge="1">
          <mxGeometry relative="1" as="geometry" />
        </mxCell>
        <mxCell id="DKkt0BgKR7W6huxDK1Yo-23" style="edgeStyle=orthogonalEdgeStyle;rounded=0;orthogonalLoop=1;jettySize=auto;html=1;entryX=0.5;entryY=1;entryDx=0;entryDy=0;fontStyle=1" parent="1" source="DKkt0BgKR7W6huxDK1Yo-17" target="DKkt0BgKR7W6huxDK1Yo-21" edge="1">
          <mxGeometry relative="1" as="geometry" />
        </mxCell>
        <mxCell id="DKkt0BgKR7W6huxDK1Yo-17" value="Whether the user re-enters?" style="rhombus;whiteSpace=wrap;html=1;fontStyle=1" parent="1" vertex="1">
          <mxGeometry x="630" y="560" width="140" height="110" as="geometry" />
        </mxCell>
        <mxCell id="DKkt0BgKR7W6huxDK1Yo-20" value="&lt;font style=&quot;font-size: 15px;&quot;&gt;Yes&lt;/font&gt;" style="text;html=1;align=center;verticalAlign=middle;resizable=0;points=[];autosize=1;strokeColor=none;fillColor=none;fontStyle=1" parent="1" vertex="1">
          <mxGeometry x="565" y="585" width="50" height="30" as="geometry" />
        </mxCell>
        <mxCell id="DKkt0BgKR7W6huxDK1Yo-21" value="Over" style="ellipse;whiteSpace=wrap;html=1;fontStyle=1" parent="1" vertex="1">
          <mxGeometry x="910" y="390" width="120" height="80" as="geometry" />
        </mxCell>
        <mxCell id="DKkt0BgKR7W6huxDK1Yo-28" value="" style="edgeStyle=orthogonalEdgeStyle;rounded=0;orthogonalLoop=1;jettySize=auto;html=1;fontStyle=1" parent="1" source="DKkt0BgKR7W6huxDK1Yo-25" target="DKkt0BgKR7W6huxDK1Yo-27" edge="1">
          <mxGeometry relative="1" as="geometry" />
        </mxCell>
        <mxCell id="DKkt0BgKR7W6huxDK1Yo-25" value="Send a verify email" style="whiteSpace=wrap;html=1;fontStyle=1" parent="1" vertex="1">
          <mxGeometry x="640" y="300" width="120" height="60" as="geometry" />
        </mxCell>
        <mxCell id="DKkt0BgKR7W6huxDK1Yo-34" style="edgeStyle=orthogonalEdgeStyle;rounded=0;orthogonalLoop=1;jettySize=auto;html=1;entryX=0;entryY=0.5;entryDx=0;entryDy=0;fontStyle=1" parent="1" source="DKkt0BgKR7W6huxDK1Yo-27" target="DKkt0BgKR7W6huxDK1Yo-5" edge="1">
          <mxGeometry relative="1" as="geometry" />
        </mxCell>
        <mxCell id="DKkt0BgKR7W6huxDK1Yo-36" style="edgeStyle=orthogonalEdgeStyle;rounded=0;orthogonalLoop=1;jettySize=auto;html=1;entryX=1;entryY=0.5;entryDx=0;entryDy=0;fontStyle=1" parent="1" source="DKkt0BgKR7W6huxDK1Yo-27" target="DKkt0BgKR7W6huxDK1Yo-35" edge="1">
          <mxGeometry relative="1" as="geometry" />
        </mxCell>
        <mxCell id="DKkt0BgKR7W6huxDK1Yo-27" value="If user click verify email" style="rhombus;whiteSpace=wrap;html=1;fontStyle=1" parent="1" vertex="1">
          <mxGeometry x="640" y="150" width="120" height="100" as="geometry" />
        </mxCell>
        <mxCell id="DKkt0BgKR7W6huxDK1Yo-30" value="&lt;font style=&quot;font-size: 15px;&quot;&gt;Yes&lt;/font&gt;" style="text;html=1;align=center;verticalAlign=middle;resizable=0;points=[];autosize=1;strokeColor=none;fillColor=none;fontStyle=1" parent="1" vertex="1">
          <mxGeometry x="755" y="170" width="50" height="30" as="geometry" />
        </mxCell>
        <mxCell id="DKkt0BgKR7W6huxDK1Yo-31" value="&lt;font style=&quot;font-size: 15px;&quot;&gt;No&lt;/font&gt;" style="text;html=1;align=center;verticalAlign=middle;resizable=0;points=[];autosize=1;strokeColor=none;fillColor=none;fontStyle=1" parent="1" vertex="1">
          <mxGeometry x="600" y="170" width="40" height="30" as="geometry" />
        </mxCell>
        <mxCell id="DKkt0BgKR7W6huxDK1Yo-37" style="edgeStyle=orthogonalEdgeStyle;rounded=0;orthogonalLoop=1;jettySize=auto;html=1;entryX=0;entryY=0.5;entryDx=0;entryDy=0;fontStyle=1" parent="1" source="DKkt0BgKR7W6huxDK1Yo-35" target="DKkt0BgKR7W6huxDK1Yo-25" edge="1">
          <mxGeometry relative="1" as="geometry">
            <Array as="points">
              <mxPoint x="535" y="330" />
            </Array>
          </mxGeometry>
        </mxCell>
        <mxCell id="DKkt0BgKR7W6huxDK1Yo-38" style="edgeStyle=orthogonalEdgeStyle;rounded=0;orthogonalLoop=1;jettySize=auto;html=1;entryX=1;entryY=0.5;entryDx=0;entryDy=0;fontStyle=1" parent="1" source="DKkt0BgKR7W6huxDK1Yo-35" target="DKkt0BgKR7W6huxDK1Yo-21" edge="1">
          <mxGeometry relative="1" as="geometry">
            <Array as="points">
              <mxPoint x="535" y="120" />
              <mxPoint x="1060" y="120" />
              <mxPoint x="1060" y="430" />
            </Array>
          </mxGeometry>
        </mxCell>
        <mxCell id="DKkt0BgKR7W6huxDK1Yo-35" value="If user send verify email again" style="rhombus;whiteSpace=wrap;html=1;fontStyle=1" parent="1" vertex="1">
          <mxGeometry x="480" y="147.5" width="110" height="105" as="geometry" />
        </mxCell>
        <mxCell id="DKkt0BgKR7W6huxDK1Yo-39" value="&lt;font style=&quot;font-size: 15px;&quot;&gt;Yes&lt;/font&gt;" style="text;html=1;align=center;verticalAlign=middle;resizable=0;points=[];autosize=1;strokeColor=none;fillColor=none;fontStyle=1" parent="1" vertex="1">
          <mxGeometry x="490" y="260" width="50" height="30" as="geometry" />
        </mxCell>
        <mxCell id="DKkt0BgKR7W6huxDK1Yo-40" value="&lt;font style=&quot;font-size: 15px;&quot;&gt;No&lt;/font&gt;" style="text;html=1;align=center;verticalAlign=middle;resizable=0;points=[];autosize=1;strokeColor=none;fillColor=none;fontStyle=1" parent="1" vertex="1">
          <mxGeometry x="495" y="120" width="40" height="30" as="geometry" />
        </mxCell>
        <mxCell id="DKkt0BgKR7W6huxDK1Yo-41" value="&lt;font style=&quot;font-size: 15px;&quot;&gt;No&lt;/font&gt;" style="text;html=1;align=center;verticalAlign=middle;resizable=0;points=[];autosize=1;strokeColor=none;fillColor=none;fontStyle=1" parent="1" vertex="1">
          <mxGeometry x="787" y="585" width="40" height="30" as="geometry" />
        </mxCell>
      </root>
    </mxGraphModel>
  </diagram>
</mxfile>
